#N canvas 574 124 450 300 10;
#X obj 159 106 r \$1;
#X msg 159 149 send \$1 \$2;
#X obj 228 85 loadbang;
#X obj 228 106 symbol \$1;
#X obj 159 127 list prepend;
#X obj 159 171 s oscOut;
#X obj 115 106 inlet;
#X connect 0 0 4 0;
#X connect 1 0 5 0;
#X connect 2 0 3 0;
#X connect 3 0 4 1;
#X connect 4 0 1 0;
#X connect 6 0 4 0;
