#N canvas 107 40 1116 630 10;
#X obj 149 160 vsl 15 128 0 127 0 0 empty empty pitch 0 -9 0 10 -262144
-1 -1 0 1;
#X msg 596 327 pitch \$1;
#X obj 190 160 vsl 15 128 0 1 0 0 empty empty har 0 -9 0 10 -262144
-1 -1 0 1;
#X symbolatom 117 104 28 0 0 0 - - -, f 28;
#X obj 608 369 plts~;
#X msg 670 184 harmonics \$1;
#X obj 596 302 * 4;
#X floatatom 553 356 5 0 0 0 - - -, f 5;
#X obj 596 260 - 63;
#X floatatom 551 297 5 0 0 0 - - -, f 5;
#X obj 596 281 / 63;
#X obj 213 160 vsl 15 128 0 1 0 0 empty empty tim 0 -9 0 10 -262144
-1 -1 0 1;
#X msg 693 205 timbre \$1;
#X obj 235 160 vsl 15 128 0 1 0 0 empty empty mor 0 -9 0 10 -262144
-1 -1 0 1;
#X msg 717 227 morph \$1;
#X obj 117 160 vsl 15 128 0 15 0 0 empty empty model 0 -9 0 10 -262144
-1 -1 0 1;
#X msg 526 260 model \$1;
#X obj 310 102 bng 35 250 50 0 empty empty trigger 0 -8 0 10 -262144
-1 -1;
#X obj 258 160 vsl 15 128 0 1 0 0 empty empty lpg 0 -9 0 10 -262144
-1 -1 0 1;
#X obj 281 160 vsl 15 128 0 1 0 0 empty empty dec 0 -9 0 10 -262144
-1 -1 0 1;
#X msg 737 248 lpg_colour \$1;
#X msg 761 269 decay \$1;
#X msg 451 260 trigger \$1;
#X obj 451 160 1;
#X obj 319 160 vsl 15 128 -1 1 0 1 empty empty mti 0 -9 0 10 -262144
-1 -1 6400 1;
#X obj 343 160 vsl 15 128 -1 1 0 1 empty empty fm 0 -9 0 10 -262144
-1 -1 6500 1;
#X obj 366 160 vsl 15 128 -1 1 0 1 empty empty mmo 0 -9 0 10 -262144
-1 -1 6600 1;
#X msg 905 206 mod_fm \$1;
#X msg 928 229 mod_morph \$1;
#X obj 309 69 tgl 15 0 empty empty empty 0 -8 0 10 -262144 -1 -1 1
1;
#X msg 410 188 trigger_active \$1;
#X msg 881 184 mod_timbre \$1;
#X text 101 296 out;
#X text 378 296 aux;
#X obj 460 520 outlet~;
#X obj 526 520 outlet~;
#X text 101 49 mod;
#X text 137 49 tim;
#X text 179 49 fm;
#X text 217 49 mor;
#X text 262 49 har;
#X text 304 49 tri;
#X text 378 49 pit;
#X text 343 49 lev;
#X obj 348 69 tgl 15 0 empty empty empty 0 -8 0 10 -262144 -1 -1 0
1;
#X obj 141 69 tgl 15 0 empty empty empty 0 -8 0 10 -262144 -1 -1 0
1;
#X obj 221 69 tgl 15 0 empty empty empty 0 -8 0 10 -262144 -1 -1 0
1;
#X obj 181 69 tgl 15 0 empty empty empty 0 -8 0 10 -262144 -1 -1 0
1;
#X obj 71 22 inlet;
#X obj 121 22 inlet;
#X obj 171 22 inlet;
#X obj 221 22 inlet;
#X obj 271 22 inlet;
#X obj 321 22 inlet;
#X obj 371 22 inlet;
#X obj 421 22 inlet;
#X connect 0 0 8 0;
#X connect 0 0 9 0;
#X connect 1 0 4 0;
#X connect 2 0 5 0;
#X connect 4 0 34 0;
#X connect 4 1 35 0;
#X connect 4 2 3 0;
#X connect 5 0 4 0;
#X connect 6 0 1 0;
#X connect 6 0 7 0;
#X connect 8 0 10 0;
#X connect 10 0 6 0;
#X connect 11 0 12 0;
#X connect 12 0 4 0;
#X connect 13 0 14 0;
#X connect 14 0 4 0;
#X connect 15 0 16 0;
#X connect 16 0 4 0;
#X connect 17 0 23 0;
#X connect 18 0 20 0;
#X connect 19 0 21 0;
#X connect 20 0 4 0;
#X connect 21 0 4 0;
#X connect 22 0 4 0;
#X connect 23 0 22 0;
#X connect 24 0 31 0;
#X connect 25 0 27 0;
#X connect 26 0 28 0;
#X connect 27 0 4 0;
#X connect 28 0 4 0;
#X connect 29 0 30 0;
#X connect 30 0 4 0;
#X connect 31 0 4 0;
#X connect 48 0 15 0;
#X connect 49 0 11 0;
#X connect 53 0 22 0;
#X connect 55 0 8 0;
#X coords 0 -1 1 1 300 260 2 100 50;
