#N canvas 20 23 1240 683 10;
#X obj 259 160 vsl 15 128 -4 4 0 1 /plts~/freq /plts~/freq freq 0 -9
0 10 -262144 -1 -1 6300 1;
#X msg 10 483 pitch \$1;
#X obj 300 160 vsl 15 128 0 1 0 1 /plts~/harmonics /plts~/harmonics
har 0 -9 0 10 -262144 -1 -1 0 1;
#X symbolatom 227 104 28 0 0 0 - - -, f 28;
#X obj 758 469 plts~, f 27;
#X msg 114 380 harmonics \$1;
#X obj 323 160 vsl 15 128 0 1 0 1 /plts~/timbre /plts~/timbre tim 0
-9 0 10 -262144 -1 -1 0 1;
#X msg 11 526 timbre \$1;
#X obj 345 160 vsl 15 128 0 1 0 1 /plts~/morph /plts~/morph mor 0 -9
0 10 -262144 -1 -1 9000 1;
#X msg 11 572 morph \$1;
#X obj 227 160 vsl 15 128 0 15 0 1 /plts~/model /plts~/model model
0 -9 0 10 -262144 -1 -1 0 1;
#X msg 11 379 model \$1;
#X obj 440 102 bng 35 250 50 0 /plts~/trigger /plts~/trigger trigger
0 -8 0 10 -262144 -1 -1;
#X obj 368 160 vsl 15 128 0 1 0 1 /plts~/lpg /plts~/lpg lpg 0 -9 0
10 -262144 -1 -1 6300 1;
#X obj 391 160 vsl 15 128 0 1 0 1 /plts~/decay /plts~/decay dec 0 -9
0 10 -262144 -1 -1 6300 1;
#X msg 248 378 lpg_colour \$1;
#X msg 248 423 decay \$1;
#X msg 563 154 trigger \$1;
#X obj 563 134 1;
#X obj 439 160 vsl 15 128 -1 1 0 1 /plts~/mod/timbre /plts~/mod/timbre
mti 0 -9 0 10 -262144 -1 -1 10100 1;
#X obj 463 160 vsl 15 128 -1 1 0 1 /plts~/mod/fm /plts~/mod/fm fm 0
-9 0 10 -262144 -1 -1 6500 1;
#X obj 486 160 vsl 15 128 -1 1 0 1 /plts~/mod/morph /plts~/mod/morph
mmo 0 -9 0 10 -262144 -1 -1 6350 1;
#X msg 291 629 mod_fm \$1;
#X msg 414 629 mod_morph \$1;
#X obj 439 69 tgl 15 1 /plts~/trigger/active /plts~/trigger/active
empty 0 -8 0 10 -262144 -1 -1 1 1;
#X msg 346 378 trigger_active \$1;
#X msg 291 582 mod_timbre \$1;
#X text 201 296 out;
#X text 348 296 aux;
#X obj 758 550 outlet~;
#X obj 812 550 outlet~;
#X text 237 49 mod;
#X text 273 49 tim;
#X text 315 49 fm;
#X text 353 49 mor;
#X text 392 49 har;
#X text 434 49 tri;
#X text 508 49 pit;
#X text 473 49 lev;
#X obj 478 69 tgl 15 1 /plts~/level/active /plts~/level/active empty
0 -8 0 10 -262144 -1 -1 0 1;
#X obj 277 69 tgl 15 1 /plts~/timbre/active /plts~/timbre/active empty
0 -8 0 10 -262144 -1 -1 0 1;
#X obj 357 69 tgl 15 1 /plts~/morph/active /plts~/morph/active empty
0 -8 0 10 -262144 -1 -1 0 1;
#X obj 317 69 tgl 15 1 /plts~/freq/active /plts~/freq/active empty
0 -8 0 10 -262144 -1 -1 0 1;
#X floatatom 227 124 5 0 0 0 - - -, f 5;
#X obj 731 22 inlet~;
#X obj 781 22 inlet~;
#X obj 831 22 inlet~;
#X obj 881 22 inlet~;
#X obj 931 22 inlet~;
#X obj 981 22 inlet~;
#X obj 1031 22 inlet~;
#X obj 1081 22 inlet~;
#X obj 688 22 inlet;
#X text 201 49 msg;
#X msg 112 528 timbre_active \$1;
#X msg 113 423 frequency_active \$1;
#X msg 111 572 morph_active \$1;
#X msg 504 380 level_active \$1;
#X obj 917 550 outlet;
#X text 508 296 mod;
#X text 225 82 plts~;
#X obj 9 319 osc-send /plts~/mod/morph;
#X obj 9 19 osc-send /plts~/timbre/active;
#X obj 9 39 osc-send /plts~/freq/active;
#X obj 9 59 osc-send /plts~/morph/active;
#X obj 9 79 osc-send /plts~/trigger/active;
#X obj 9 99 osc-send /plts~/level/active;
#X obj 9 129 osc-send /plts~/model;
#X obj 9 149 osc-send /plts~/freq;
#X obj 9 169 osc-send /plts~/harmonics;
#X obj 9 189 osc-send /plts~/timbre;
#X obj 9 209 osc-send /plts~/morph;
#X obj 9 229 osc-send /plts~/lpg;
#X obj 9 249 osc-send /plts~/decay;
#X obj 9 279 osc-send /plts~/mod/timbre;
#X obj 9 299 osc-send /plts~/mod/fm;
#X obj 935 520 osc-send /plts~/model/mod;
#X obj 11 357 r /plts~/model;
#X obj 10 463 / 12;
#X obj 10 422 * 12;
#X obj 10 443 int;
#X obj 10 402 r /plts~/freq;
#X obj 114 357 r /plts~/harmonics;
#X obj 11 505 r /plts~/timbre;
#X obj 112 505 r /plts~/timbre/active;
#X obj 11 551 r /plts~/morph;
#X obj 111 551 r /plts~/morph/active;
#X obj 113 402 r /plts~/freq/active;
#X obj 248 357 r /plts~/lpg;
#X obj 248 401 r /plts~/decay;
#X obj 346 357 r /plts~/trigger/active;
#X obj 504 356 r /plts~/level/active;
#X obj 291 560 r /plts~/mod/timbre;
#X obj 291 607 r /plts~/mod/fm;
#X obj 414 608 r /plts~/mod/morph;
#X obj 563 92 r /plts~/trigger;
#X msg 563 113 bang;
#X connect 1 0 4 0;
#X connect 4 0 29 0;
#X connect 4 1 30 0;
#X connect 4 2 3 0;
#X connect 4 3 43 0;
#X connect 4 3 58 0;
#X connect 4 3 76 0;
#X connect 5 0 4 0;
#X connect 7 0 4 0;
#X connect 9 0 4 0;
#X connect 11 0 4 0;
#X connect 15 0 4 0;
#X connect 16 0 4 0;
#X connect 17 0 4 0;
#X connect 18 0 17 0;
#X connect 22 0 4 0;
#X connect 23 0 4 0;
#X connect 25 0 4 0;
#X connect 26 0 4 0;
#X connect 44 0 4 1;
#X connect 45 0 4 2;
#X connect 46 0 4 3;
#X connect 47 0 4 4;
#X connect 48 0 4 5;
#X connect 49 0 4 6;
#X connect 50 0 4 7;
#X connect 51 0 4 8;
#X connect 52 0 4 0;
#X connect 54 0 4 0;
#X connect 55 0 4 0;
#X connect 56 0 4 0;
#X connect 57 0 4 0;
#X connect 77 0 11 0;
#X connect 78 0 1 0;
#X connect 79 0 80 0;
#X connect 80 0 78 0;
#X connect 81 0 79 0;
#X connect 82 0 5 0;
#X connect 83 0 7 0;
#X connect 84 0 54 0;
#X connect 85 0 9 0;
#X connect 86 0 56 0;
#X connect 87 0 55 0;
#X connect 88 0 15 0;
#X connect 89 0 16 0;
#X connect 90 0 25 0;
#X connect 91 0 57 0;
#X connect 92 0 26 0;
#X connect 93 0 22 0;
#X connect 94 0 23 0;
#X connect 95 0 96 0;
#X connect 96 0 18 0;
#X coords 0 -1 1 1 330 260 2 200 50;
